<svg xmlns="http://www.w3.org/2000/svg" viewBox="0 0 48 48"><g data-name="Online studying"><path d="M45 3H32.18L24.35.06c-.48-.18-.11-.22-8.53 2.94H3a3 3 0 0 0-3 3v29a3 3 0 0 0 3 3h17.09l-.89 4H17a2 2 0 0 0-2 2v3a1 1 0 0 0 1 1h16a1 1 0 0 0 1-1v-3a2 2 0 0 0-2-2h-2.2l-.89-4H45a3 3 0 0 0 3-3V6a3 3 0 0 0-3-3zm-21-.93L37.15 7 24 11.93 10.85 7zm-9 8.62c9.39 3.53 8.74 3.31 9 3.31s-.48.25 9-3.31V19a1 1 0 0 1-1 1H16a1 1 0 0 1-1-1zM2 6a1 1 0 0 1 1-1h7.48C7.73 6 7 6.07 7 7s.61.92 2 1.43L8.88 15a1 1 0 0 0 2 0L11 9.18l2 .76V19a3 3 0 0 0 3 3h16a3 3 0 0 0 3-3V9.94l5.35-2a1 1 0 0 0 0-1.88L37.52 5H45a1 1 0 0 1 1 1v25H2zm29 40H17v-2h14zm-4.25-4h-5.5l.89-4h3.72zM46 35a1 1 0 0 1-1 1H3a1 1 0 0 1-1-1v-2h44z"/><path d="M39 25H22a1 1 0 0 0-2 0h-3a1 1 0 0 0 0 2h3a1 1 0 0 0 2 0h17a1 1 0 0 0 0-2zM13.45 25.11c-4.47-2.24-4.37-2.33-5-2S8 23.76 8 28a1 1 0 0 0 1 1c.34 0 .13.05 4.45-2.11a1 1 0 0 0 0-1.78zM10 26.38v-.76l.76.38z"/></g></svg>